<svg xmlns="http://www.w3.org/2000/svg" width="34.941" height="34.941" viewBox="0 0 34.941 34.941">
  <path id="Path_370" data-name="Path 370" d="M17.47,0C10.09,0,0,5.578,0,17.47c0,11.59,9.7,17.47,17.47,17.47,13.323,0,17.47-11.672,17.47-17.47A17.329,17.329,0,0,0,17.47,0ZM13.419,1.644A15.6,15.6,0,0,0,9.107,8.962,16.231,16.231,0,0,1,5.647,6.2,16.369,16.369,0,0,1,13.419,1.644ZM4.9,7.043a17.128,17.128,0,0,0,3.9,3.04A29.539,29.539,0,0,0,7.9,16.906H1.142A16.272,16.272,0,0,1,4.9,7.043ZM4.9,27.9a16.23,16.23,0,0,1-3.755-9.863H7.9A29.488,29.488,0,0,0,8.8,24.857,17.634,17.634,0,0,0,4.9,27.9Zm.75.846a16.231,16.231,0,0,1,3.46-2.758A15.635,15.635,0,0,0,13.419,33.3,16.48,16.48,0,0,1,5.647,28.744Zm11.259,5.028c-2.93-.371-5.454-3.645-6.816-8.336a16.44,16.44,0,0,1,6.816-1.754v10.09Zm0-11.211A17.5,17.5,0,0,0,9.8,24.328a29.5,29.5,0,0,1-.777-6.293h7.882Zm0-5.654H9.024A29.5,29.5,0,0,1,9.8,10.613a17.554,17.554,0,0,0,7.105,1.768Zm0-5.647A16.309,16.309,0,0,1,10.09,9.506c1.362-4.7,3.886-7.965,6.816-8.336ZM30.043,7.043A16.272,16.272,0,0,1,33.8,16.906H27.045a29.488,29.488,0,0,0-.894-6.823A17.44,17.44,0,0,0,30.043,7.043Zm-.75-.846a16.231,16.231,0,0,1-3.46,2.758,15.67,15.67,0,0,0-4.313-7.318A16.48,16.48,0,0,1,29.294,6.2ZM18.034,1.169c2.93.371,5.454,3.645,6.816,8.336a16.413,16.413,0,0,1-6.816,1.754Zm0,11.211a17.5,17.5,0,0,0,7.105-1.768,29.5,29.5,0,0,1,.777,6.293H18.034Zm0,5.654h7.882a29.5,29.5,0,0,1-.777,6.293,17.28,17.28,0,0,0-7.105-1.768Zm0,15.737V23.681a16.309,16.309,0,0,1,6.816,1.754C23.489,30.133,20.964,33.4,18.034,33.771Zm3.487-.475a15.6,15.6,0,0,0,4.313-7.318,16.23,16.23,0,0,1,3.46,2.758A16.369,16.369,0,0,1,21.522,33.3Zm8.522-5.4a17.44,17.44,0,0,0-3.893-3.04,29.539,29.539,0,0,0,.894-6.823H33.8A16.272,16.272,0,0,1,30.043,27.9Z"/>
</svg>
