<svg xmlns="http://www.w3.org/2000/svg" width="33.107" height="15.005" viewBox="0 0 33.107 15.005">
  <g id="Group_2581" data-name="Group 2581" transform="translate(-1306.878 -804.29)">
    <path id="Icon_ionic-ios-arrow-back" data-name="Icon ionic-ios-arrow-back" d="M13.3,12.124l4.489-4.485a.848.848,0,0,0-1.2-1.2L11.5,11.523a.846.846,0,0,0-.025,1.169l5.107,5.117a.848.848,0,0,0,1.2-1.2Z" transform="translate(1320.452 799.739)" stroke="#000" stroke-width="3"/>
    <path id="Icon_ionic-ios-arrow-back-2" data-name="Icon ionic-ios-arrow-back" d="M13.3,12.124l4.489-4.485a.848.848,0,0,0-1.2-1.2L11.5,11.523a.846.846,0,0,0-.025,1.169l5.107,5.117a.848.848,0,0,0,1.2-1.2Z" transform="translate(1308.852 799.739)" stroke="#000" stroke-width="3"/>
    <path id="Icon_ionic-ios-arrow-back-3" data-name="Icon ionic-ios-arrow-back" d="M13.3,12.124l4.489-4.485a.848.848,0,0,0-1.2-1.2L11.5,11.523a.846.846,0,0,0-.025,1.169l5.107,5.117a.848.848,0,0,0,1.2-1.2Z" transform="translate(1297.252 799.739)" stroke="#000" stroke-width="3"/>
  </g>
</svg>
