<svg xmlns="http://www.w3.org/2000/svg" width="38.084" height="44.721" viewBox="0 0 38.084 44.721">
  <g id="surface1" transform="translate(-0.5 0)">
    <path id="Path_372" data-name="Path 372" d="M36.572,29.865a22.562,22.562,0,0,1-5.4,8.418A28.285,28.285,0,0,1,20.607,44.54a3.23,3.23,0,0,1-1.026.181h-.039a3.279,3.279,0,0,1-.63-.062,3.4,3.4,0,0,1-.433-.118A28.284,28.284,0,0,1,7.906,38.288a22.52,22.52,0,0,1-5.4-8.417C.321,23.948.445,17.423.545,12.179l0-.081c.02-.433.033-.888.04-1.39A4.74,4.74,0,0,1,5.05,6.065,18.393,18.393,0,0,0,17.568.789L17.6.761a2.865,2.865,0,0,1,3.889,0l.029.027A18.4,18.4,0,0,0,34.035,6.065,4.74,4.74,0,0,1,38.5,10.709c.007.506.02.96.04,1.39v.034C38.639,17.386,38.763,23.924,36.572,29.865Zm0,0" transform="translate(0 0)" fill="#00dd80"/>
    <path id="Path_373" data-name="Path 373" d="M235.94,29.868a22.563,22.563,0,0,1-5.4,8.418,28.285,28.285,0,0,1-10.561,6.257,3.23,3.23,0,0,1-1.026.181V0a2.869,2.869,0,0,1,1.906.761l.029.027A18.4,18.4,0,0,0,233.4,6.069a4.74,4.74,0,0,1,4.463,4.643c.007.506.02.96.04,1.39v.034C238.007,17.39,238.131,23.928,235.94,29.868Zm0,0" transform="translate(-199.368 -0.003)" fill="#00aa63"/>
    <path id="Path_374" data-name="Path 374" d="M113.186,139.544A11.159,11.159,0,0,1,102.08,150.69h-.039a11.146,11.146,0,1,1,0-22.291h.039A11.159,11.159,0,0,1,113.186,139.544Zm0,0" transform="translate(-82.499 -117.183)" fill="#fff"/>
    <path id="Path_375" data-name="Path 375" d="M230.056,139.544a11.159,11.159,0,0,1-11.106,11.146V128.4A11.159,11.159,0,0,1,230.056,139.544Zm0,0" transform="translate(-199.368 -117.183)" fill="#e1ebf0"/>
    <path id="Path_376" data-name="Path 376" d="M164.855,214.22l-5.02,5.02-1.085,1.085a1.313,1.313,0,0,1-1.856,0l-2.332-2.333a1.312,1.312,0,1,1,1.855-1.855l1.405,1.405L163,212.364a1.312,1.312,0,0,1,1.855,1.855Zm0,0" transform="translate(-140.254 -193.464)" fill="#b4d2d7"/>
    <path id="Path_377" data-name="Path 377" d="M223.969,214.22l-5.02,5.02v-3.712l3.164-3.164a1.312,1.312,0,0,1,1.855,1.855Zm0,0" transform="translate(-199.368 -193.464)" fill="#6fa5aa"/>
  </g>
</svg>
