<svg xmlns="http://www.w3.org/2000/svg" width="150" height="142.704" viewBox="0 0 150 142.704">
  <g id="check-2" transform="translate(0 -12.437)">
    <g id="Group_2534" data-name="Group 2534" transform="translate(0 12.437)">
      <path id="Path_401" data-name="Path 401" d="M323.15,83.789,306.169,64.936l2.659-25.24L284,34.44l-12.666-22L248.15,22.8l-3.129,60.991,3.129,60.991,23.182,10.361,12.666-22,24.83-5.257-2.659-25.24Z" transform="translate(-173.15 -12.437)" fill="#0ed678"/>
      <path id="Path_402" data-name="Path 402" d="M51.818,12.437l-12.666,22L14.322,39.7l2.659,25.239L0,83.789l16.981,18.853-2.659,25.24,24.83,5.257,12.666,22L75,144.78V22.8Z" transform="translate(0 -12.437)" fill="#04eb84"/>
    </g>
    <g id="Group_2535" data-name="Group 2535" transform="translate(42.634 61.507)">
      <path id="Path_403" data-name="Path 403" d="M279.592,185.585l-6.565-5.86L248.15,207.6l-3.129,6.926,3.129,6.289Z" transform="translate(-215.784 -179.725)" fill="#f7f0eb"/>
      <path id="Path_404" data-name="Path 404" d="M151.57,233.1l-6.222,6.222,26.16,26.161,6.205-6.952V245.311l-6.568,7.359Z" transform="translate(-145.348 -217.44)" fill="#fffbf5"/>
    </g>
  </g>
</svg>
